<svg width="32" height="36" viewBox="0 0 32 36" fill="none" xmlns="http://www.w3.org/2000/svg">
<path d="M2.28571 32.6248C2.28571 33.5199 2.64694 34.3783 3.28992 35.0113C3.9329 35.6442 4.80497 35.9998 5.71429 35.9998H26.2857C27.195 35.9998 28.0671 35.6442 28.7101 35.0113C29.3531 34.3783 29.7143 33.5199 29.7143 32.6248V8.99977H2.28571V32.6248ZM21.7143 14.6248C21.7143 14.3264 21.8347 14.0403 22.049 13.8293C22.2633 13.6183 22.554 13.4998 22.8571 13.4998C23.1602 13.4998 23.4509 13.6183 23.6653 13.8293C23.8796 14.0403 24 14.3264 24 14.6248V30.3748C24 30.6731 23.8796 30.9593 23.6653 31.1703C23.4509 31.3812 23.1602 31.4998 22.8571 31.4998C22.554 31.4998 22.2633 31.3812 22.049 31.1703C21.8347 30.9593 21.7143 30.6731 21.7143 30.3748V14.6248ZM14.8571 14.6248C14.8571 14.3264 14.9776 14.0403 15.1919 13.8293C15.4062 13.6183 15.6969 13.4998 16 13.4998C16.3031 13.4998 16.5938 13.6183 16.8081 13.8293C17.0224 14.0403 17.1429 14.3264 17.1429 14.6248V30.3748C17.1429 30.6731 17.0224 30.9593 16.8081 31.1703C16.5938 31.3812 16.3031 31.4998 16 31.4998C15.6969 31.4998 15.4062 31.3812 15.1919 31.1703C14.9776 30.9593 14.8571 30.6731 14.8571 30.3748V14.6248ZM8 14.6248C8 14.3264 8.12041 14.0403 8.33474 13.8293C8.54906 13.6183 8.83975 13.4998 9.14286 13.4998C9.44596 13.4998 9.73665 13.6183 9.95098 13.8293C10.1653 14.0403 10.2857 14.3264 10.2857 14.6248V30.3748C10.2857 30.6731 10.1653 30.9593 9.95098 31.1703C9.73665 31.3812 9.44596 31.4998 9.14286 31.4998C8.83975 31.4998 8.54906 31.3812 8.33474 31.1703C8.12041 30.9593 8 30.6731 8 30.3748V14.6248ZM30.8571 2.24977H22.2857L21.6143 0.934924C21.4721 0.653825 21.253 0.41737 20.9817 0.252161C20.7104 0.0869516 20.3976 -0.000457044 20.0786 -0.000231813H11.9143C11.596 -0.0014363 11.2838 0.0856465 11.0134 0.251039C10.7431 0.416432 10.5255 0.653446 10.3857 0.934924L9.71429 2.24977H1.14286C0.839753 2.24977 0.549062 2.36829 0.334735 2.57927C0.120408 2.79025 0 3.0764 0 3.37477L0 5.62477C0 5.92314 0.120408 6.20928 0.334735 6.42026C0.549062 6.63124 0.839753 6.74977 1.14286 6.74977H30.8571C31.1602 6.74977 31.4509 6.63124 31.6653 6.42026C31.8796 6.20928 32 5.92314 32 5.62477V3.37477C32 3.0764 31.8796 2.79025 31.6653 2.57927C31.4509 2.36829 31.1602 2.24977 30.8571 2.24977Z" fill="white"/>
</svg>
